<svg xmlns="http://www.w3.org/2000/svg" version="1.1" xmlns:xlink="http://www.w3.org/1999/xlink" xmlns:svgjs="http://svgjs.dev/svgjs" width="1000" height="191" viewBox="0 0 1000 191" id="logo"><g transform="matrix(1,0,0,1,-0.6060506333089961,0.5036128149099852)"><svg viewBox="0 0 396 76" data-background-color="#ffffff" preserveAspectRatio="xMidYMid meet" height="191" width="1000" xmlns="http://www.w3.org/2000/svg" xmlns:xlink="http://www.w3.org/1999/xlink"><g id="tight-bounds" transform="matrix(1,0,0,1,0.2399960507903529,-0.20038879408673438)"><svg viewBox="0 0 395.52 76.40077923352739" height="76.40077923352739" width="395.52"><g><svg viewBox="0 0 661.8462544677373 127.84579686015014" height="76.40077923352739" width="395.52"><g transform="matrix(1,0,0,1,266.3262544677372,0)"><svg viewBox="0 0 395.52 127.84579686015014" height="127.84579686015014" width="395.52"><g><svg viewBox="0 0 395.52 127.84579686015014" height="127.84579686015014" width="395.52"><g><svg viewBox="0 0 395.52 92.74510948905109" height="92.74510948905109" width="395.52"><g transform="matrix(1,0,0,1,0,0)"><svg width="395.52" viewBox="1.25 -25.299999237060547 109.58999633789062 25.69999885559082" height="92.74510948905109" data-palette-color="#1c4b82"><path d="M37.45 0L31.8 0 31.8-16.3Q31.8-18.4 31.15-19.63 30.5-20.85 28.9-20.85L28.9-20.85Q27.95-20.85 26.98-20.33 26-19.8 25.2-18.8 24.4-17.8 23.9-16.4 23.4-15 23.4-13.3L23.4-13.3 23.4 0 17.75 0 17.75-16.3Q17.75-18.4 17.1-19.63 16.45-20.85 14.85-20.85L14.85-20.85Q13.85-20.85 12.88-20.28 11.9-19.7 11.13-18.6 10.35-17.5 9.88-15.93 9.4-14.35 9.4-12.4L9.4-12.4 9.4 0 3.7 0 3.7-12.6Q3.7-15.6 3.3-17.63 2.9-19.65 2.45-20.9L2.45-20.9Q1.9-22.35 1.25-23.25L1.25-23.25 5.75-25.05Q6.25-24.5 6.75-23.7L6.75-23.7Q7.15-23 7.55-21.98 7.95-20.95 8.2-19.65L8.2-19.65Q9.45-22.65 11.73-23.98 14-25.3 16.55-25.3L16.55-25.3Q19.1-25.3 20.53-24 21.95-22.7 22.65-20.65L22.65-20.65Q24-23.15 26.13-24.23 28.25-25.3 30.6-25.3L30.6-25.3Q32.55-25.3 33.88-24.68 35.2-24.05 35.98-22.93 36.75-21.8 37.1-20.23 37.45-18.65 37.45-16.7L37.45-16.7 37.45 0ZM63.8-23.85L63.8-12.05Q63.8-9.05 64.17-7.03 64.55-5 65-3.75L65-3.75Q65.55-2.25 66.2-1.4L66.2-1.4 61.75 0.4Q61.1-0.25 60.55-1.15L60.55-1.15Q60.1-1.95 59.7-3.08 59.3-4.2 59.2-5.75L59.2-5.75Q58.35-2.75 56.47-1.23 54.6 0.3 51.4 0.3L51.4 0.3Q49.05 0.3 47.32-0.58 45.6-1.45 44.45-3.08 43.3-4.7 42.75-7 42.2-9.3 42.2-12.1L42.2-12.1Q42.2-14.95 43.07-17.38 43.95-19.8 45.52-21.55 47.1-23.3 49.3-24.3 51.5-25.3 54.15-25.3L54.15-25.3Q55.65-25.3 57.27-25.08 58.9-24.85 60.3-24.6 61.7-24.35 62.67-24.13 63.65-23.9 63.8-23.85L63.8-23.85ZM52.35-3.7Q53.6-3.7 54.65-4.55 55.7-5.4 56.47-6.78 57.25-8.15 57.67-9.93 58.1-11.7 58.1-13.55L58.1-13.55 58.1-20.75Q57.6-20.9 56.6-21.1 55.6-21.3 54.8-21.3L54.8-21.3Q52.9-21.3 51.67-20.65 50.45-20 49.7-18.85 48.95-17.7 48.65-16.1 48.35-14.5 48.35-12.6L48.35-12.6Q48.35-10.85 48.45-9.25 48.55-7.65 48.97-6.4 49.4-5.15 50.2-4.42 51-3.7 52.35-3.7L52.35-3.7ZM80.65-19.7Q79.75-19.7 78.84-19.25 77.95-18.8 77.25-18.03 76.55-17.25 76.09-16.15 75.65-15.05 75.65-13.7L75.65-13.7 75.65 0 69.95 0 69.95-12.6Q69.95-15.6 69.55-17.63 69.15-19.65 68.7-20.9L68.7-20.9Q68.15-22.35 67.5-23.25L67.5-23.25 72-25.05Q72.45-24.5 72.95-23.7L72.95-23.7Q73.34-23 73.75-22.05 74.15-21.1 74.4-19.8L74.4-19.8Q75.4-22.7 77.3-23.98 79.2-25.25 81.59-25.25L81.59-25.25Q82.75-25.25 83.75-24.98 84.75-24.7 84.7-24.7L84.7-24.7 83.09-19.15Q83.15-19.15 82.52-19.43 81.9-19.7 80.65-19.7L80.65-19.7ZM102.74-12.7L102.74-24.9 108.44-24.9 108.44-12.05Q108.44-9.05 108.82-7.03 109.19-5 109.64-3.75L109.64-3.75Q110.19-2.25 110.84-1.4L110.84-1.4 106.39 0.4Q105.79-0.15 105.29-1L105.29-1Q104.89-1.7 104.47-2.73 104.04-3.75 103.89-5.15L103.89-5.15Q102.54-2.2 100.09-0.95 97.64 0.3 94.99 0.3L94.99 0.3Q91.04 0.3 89.37-2 87.69-4.3 87.69-8.3L87.69-8.3 87.69-24.9 93.39-24.9 93.39-8.4Q93.39-6.3 94.14-5.1 94.89-3.9 96.69-3.9L96.69-3.9Q97.79-3.9 98.87-4.53 99.94-5.15 100.82-6.3 101.69-7.45 102.22-9.08 102.74-10.7 102.74-12.7L102.74-12.7Z" opacity="1" transform="matrix(1,0,0,1,0,0)" fill="#ffffff" class="undefined-text-0" data-fill-palette-color="primary" id="text-0"></path></svg></g></svg></g><g transform="matrix(1,0,0,1,0,114.64000395678832)"><svg viewBox="0 0 232.20979200000002 13.205792903361836" height="13.205792903361836" width="232.20979200000002"><g transform="matrix(1,0,0,1,0,0)"><svg width="232.20979200000002" viewBox="1.7999999523162842 -39.150001525878906 853.6099853515625 48.55000305175781" height="13.205792903361836" data-palette-color="#1c4b82"><path d="M21.6-30.4L24.55-30.4Q26.95-22.35 29.38-15.83 31.8-9.3 34.1-3.85L34.1-3.85Q35.85-9.75 37.58-17.75 39.3-25.75 40.9-34.65L40.9-34.65 44.25-34.65Q43.35-29.3 42.43-24.63 41.5-19.95 40.5-15.73 39.5-11.5 38.4-7.63 37.3-3.75 36 0L36 0 32.35 0Q31.15-2.85 29.98-5.7 28.8-8.55 27.65-11.58 26.5-14.6 25.35-17.9 24.2-21.2 23-24.9L23-24.9Q21.8-21.2 20.63-17.9 19.45-14.6 18.3-11.58 17.15-8.55 15.98-5.7 14.8-2.85 13.6 0L13.6 0 10 0Q8.65-3.75 7.53-7.63 6.4-11.5 5.43-15.73 4.45-19.95 3.58-24.63 2.7-29.3 1.8-34.65L1.8-34.65 5.3-34.65Q6.05-30.25 6.85-26.03 7.65-21.8 8.53-17.85 9.4-13.9 10.33-10.38 11.25-6.85 12.15-3.85L12.15-3.85Q14.3-9.4 16.75-15.88 19.2-22.35 21.6-30.4L21.6-30.4ZM53.6-25.85L53.6 0 50.35 0 50.35-25.85 53.6-25.85ZM54.35-33.65L54.35-33.65Q54.35-32.5 53.65-31.83 52.95-31.15 51.95-31.15L51.95-31.15Q50.95-31.15 50.25-31.83 49.55-32.5 49.55-33.65L49.55-33.65Q49.55-34.8 50.25-35.48 50.95-36.15 51.95-36.15L51.95-36.15Q52.95-36.15 53.65-35.48 54.35-34.8 54.35-33.65ZM82.75-38.8L82.75-0.8Q81.3-0.3 79.05 0.15 76.8 0.6 73.35 0.6L73.35 0.6Q70.5 0.6 68.17-0.33 65.85-1.25 64.17-3 62.5-4.75 61.57-7.25 60.65-9.75 60.65-12.9L60.65-12.9Q60.65-15.85 61.42-18.32 62.2-20.8 63.7-22.6 65.2-24.4 67.37-25.4 69.55-26.4 72.35-26.4L72.35-26.4Q74.9-26.4 76.77-25.68 78.65-24.95 79.5-24.3L79.5-24.3 79.5-38.2 82.75-38.8ZM79.5-3.05L79.5-21.15Q79.05-21.5 78.37-21.9 77.7-22.3 76.8-22.65 75.9-23 74.85-23.23 73.8-23.45 72.65-23.45L72.65-23.45Q70.25-23.45 68.62-22.6 67-21.75 66-20.33 65-18.9 64.55-16.98 64.1-15.05 64.1-12.9L64.1-12.9Q64.1-7.8 66.65-5.08 69.2-2.35 73.4-2.35L73.4-2.35Q75.8-2.35 77.27-2.58 78.75-2.8 79.5-3.05L79.5-3.05ZM89.79-12.95L89.79-12.95Q89.79-16.35 90.77-18.88 91.74-21.4 93.32-23.1 94.89-24.8 96.92-25.63 98.94-26.45 101.09-26.45L101.09-26.45Q105.84-26.45 108.67-23.35 111.49-20.25 111.49-13.8L111.49-13.8Q111.49-13.4 111.47-13 111.44-12.6 111.39-12.25L111.39-12.25 93.24-12.25Q93.39-7.5 95.59-4.95 97.79-2.4 102.59-2.4L102.59-2.4Q105.24-2.4 106.79-2.9 108.34-3.4 109.04-3.75L109.04-3.75 109.64-0.95Q108.94-0.55 107.02 0 105.09 0.55 102.49 0.55L102.49 0.55Q99.09 0.55 96.69-0.45 94.29-1.45 92.74-3.25 91.19-5.05 90.49-7.53 89.79-10 89.79-12.95ZM93.34-15L108.14-15Q108.04-19.05 106.24-21.3 104.44-23.55 101.14-23.55L101.14-23.55Q99.39-23.55 98.02-22.85 96.64-22.15 95.62-20.98 94.59-19.8 94.02-18.25 93.44-16.7 93.34-15L93.34-15ZM138.29-2.35L138.29-2.35Q140.19-2.35 141.61-2.48 143.04-2.6 144.04-2.8L144.04-2.8 144.04-11.9Q143.49-12.15 142.29-12.43 141.09-12.7 138.99-12.7L138.99-12.7Q137.79-12.7 136.49-12.53 135.19-12.35 134.09-11.78 132.99-11.2 132.29-10.2 131.59-9.2 131.59-7.55L131.59-7.55Q131.59-6.1 132.06-5.1 132.54-4.1 133.41-3.5 134.29-2.9 135.51-2.63 136.74-2.35 138.29-2.35ZM137.99-26.45L137.99-26.45Q140.54-26.45 142.31-25.73 144.09-25 145.19-23.73 146.29-22.45 146.79-20.7 147.29-18.95 147.29-16.9L147.29-16.9 147.29-0.6Q146.79-0.45 145.84-0.28 144.89-0.1 143.64 0.1 142.39 0.3 140.86 0.43 139.34 0.55 137.74 0.55L137.74 0.55Q135.69 0.55 133.96 0.1 132.24-0.35 130.96-1.33 129.69-2.3 128.96-3.83 128.24-5.35 128.24-7.55L128.24-7.55Q128.24-9.65 129.04-11.15 129.84-12.65 131.29-13.63 132.74-14.6 134.74-15.05 136.74-15.5 139.09-15.5L139.09-15.5Q139.79-15.5 140.56-15.43 141.34-15.35 142.06-15.23 142.79-15.1 143.31-14.98 143.84-14.85 144.04-14.75L144.04-14.75 144.04-16.35Q144.04-17.7 143.84-18.98 143.64-20.25 142.96-21.28 142.29-22.3 141.06-22.93 139.84-23.55 137.84-23.55L137.84-23.55Q134.99-23.55 133.59-23.15 132.19-22.75 131.54-22.5L131.54-22.5 131.09-25.35Q131.94-25.75 133.71-26.1 135.49-26.45 137.99-26.45ZM155.59 0L155.59-24.95Q157.04-25.35 159.49-25.85 161.94-26.35 165.49-26.35L165.49-26.35Q168.44-26.35 170.41-25.5 172.39-24.65 173.56-23.08 174.74-21.5 175.24-19.3 175.74-17.1 175.74-14.45L175.74-14.45 175.74 0 172.49 0 172.49-13.4Q172.49-16.15 172.11-18.05 171.74-19.95 170.86-21.15 169.99-22.35 168.56-22.88 167.14-23.4 164.99-23.4L164.99-23.4Q162.69-23.4 161.01-23.15 159.34-22.9 158.84-22.7L158.84-22.7 158.84 0 155.59 0ZM204.58-38.8L204.58-0.8Q203.13-0.3 200.88 0.15 198.63 0.6 195.18 0.6L195.18 0.6Q192.33 0.6 190.01-0.33 187.68-1.25 186.01-3 184.33-4.75 183.41-7.25 182.48-9.75 182.48-12.9L182.48-12.9Q182.48-15.85 183.26-18.32 184.03-20.8 185.53-22.6 187.03-24.4 189.21-25.4 191.38-26.4 194.18-26.4L194.18-26.4Q196.73-26.4 198.61-25.68 200.48-24.95 201.33-24.3L201.33-24.3 201.33-38.2 204.58-38.8ZM201.33-3.05L201.33-21.15Q200.88-21.5 200.21-21.9 199.53-22.3 198.63-22.65 197.73-23 196.68-23.23 195.63-23.45 194.48-23.45L194.48-23.45Q192.08-23.45 190.46-22.6 188.83-21.75 187.83-20.33 186.83-18.9 186.38-16.98 185.93-15.05 185.93-12.9L185.93-12.9Q185.93-7.8 188.48-5.08 191.03-2.35 195.23-2.35L195.23-2.35Q197.63-2.35 199.11-2.58 200.58-2.8 201.33-3.05L201.33-3.05ZM229.88-2.3L229.88-2.3Q232.68-2.3 234.5-3.23 236.33-4.15 236.33-6.35L236.33-6.35Q236.33-7.4 236-8.15 235.68-8.9 234.93-9.5 234.18-10.1 232.95-10.65 231.73-11.2 229.93-11.95L229.93-11.95Q228.48-12.55 227.18-13.18 225.88-13.8 224.88-14.63 223.88-15.45 223.28-16.6 222.68-17.75 222.68-19.4L222.68-19.4Q222.68-22.55 225.05-24.5 227.43-26.45 231.58-26.45L231.58-26.45Q234.23-26.45 235.95-26 237.68-25.55 238.38-25.2L238.38-25.2 237.63-22.3Q237.03-22.6 235.6-23.1 234.18-23.6 231.43-23.6L231.43-23.6Q230.33-23.6 229.35-23.38 228.38-23.15 227.63-22.68 226.88-22.2 226.43-21.48 225.98-20.75 225.98-19.7L225.98-19.7Q225.98-18.65 226.38-17.9 226.78-17.15 227.55-16.57 228.33-16 229.45-15.5 230.58-15 232.03-14.4L232.03-14.4Q233.53-13.8 234.9-13.18 236.28-12.55 237.33-11.68 238.38-10.8 239.03-9.58 239.68-8.35 239.68-6.5L239.68-6.5Q239.68-3 237.05-1.2 234.43 0.6 229.88 0.6L229.88 0.6Q226.48 0.6 224.68 0.03 222.88-0.55 222.28-0.85L222.28-0.85 223.13-3.8Q223.28-3.7 223.78-3.48 224.28-3.25 225.13-2.98 225.98-2.7 227.15-2.5 228.33-2.3 229.88-2.3ZM249.23 0L245.98 0 245.98-38.2 249.23-38.8 249.23-25.1Q250.83-25.7 252.48-26.03 254.13-26.35 255.78-26.35L255.78-26.35Q258.78-26.35 260.78-25.5 262.78-24.65 263.98-23.08 265.18-21.5 265.65-19.3 266.13-17.1 266.13-14.45L266.13-14.45 266.13 0 262.88 0 262.88-13.4Q262.88-16.15 262.5-18.05 262.13-19.95 261.25-21.15 260.38-22.35 258.93-22.88 257.48-23.4 255.28-23.4L255.28-23.4Q254.43-23.4 253.45-23.25 252.48-23.1 251.63-22.93 250.78-22.75 250.1-22.55 249.43-22.35 249.23-22.25L249.23-22.25 249.23 0ZM282.57-2.35L282.57-2.35Q284.47-2.35 285.9-2.48 287.32-2.6 288.32-2.8L288.32-2.8 288.32-11.9Q287.77-12.15 286.57-12.43 285.37-12.7 283.27-12.7L283.27-12.7Q282.07-12.7 280.77-12.53 279.47-12.35 278.37-11.78 277.27-11.2 276.57-10.2 275.87-9.2 275.87-7.55L275.87-7.55Q275.87-6.1 276.35-5.1 276.82-4.1 277.7-3.5 278.57-2.9 279.8-2.63 281.02-2.35 282.57-2.35ZM282.27-26.45L282.27-26.45Q284.82-26.45 286.6-25.73 288.37-25 289.47-23.73 290.57-22.45 291.07-20.7 291.57-18.95 291.57-16.9L291.57-16.9 291.57-0.6Q291.07-0.45 290.12-0.28 289.17-0.1 287.92 0.1 286.67 0.3 285.15 0.43 283.62 0.55 282.02 0.55L282.02 0.55Q279.97 0.55 278.25 0.1 276.52-0.35 275.25-1.33 273.97-2.3 273.25-3.83 272.52-5.35 272.52-7.55L272.52-7.55Q272.52-9.65 273.32-11.15 274.12-12.65 275.57-13.63 277.02-14.6 279.02-15.05 281.02-15.5 283.37-15.5L283.37-15.5Q284.07-15.5 284.85-15.43 285.62-15.35 286.35-15.23 287.07-15.1 287.6-14.98 288.12-14.85 288.32-14.75L288.32-14.75 288.32-16.35Q288.32-17.7 288.12-18.98 287.92-20.25 287.25-21.28 286.57-22.3 285.35-22.93 284.12-23.55 282.12-23.55L282.12-23.55Q279.27-23.55 277.87-23.15 276.47-22.75 275.82-22.5L275.82-22.5 275.37-25.35Q276.22-25.75 278-26.1 279.77-26.45 282.27-26.45ZM306.87-2.25L306.42 0.45Q304.77 0.4 303.55 0.03 302.32-0.35 301.5-1.13 300.67-1.9 300.25-3.13 299.82-4.35 299.82-6.2L299.82-6.2 299.82-38.2 303.07-38.8 303.07-6.3Q303.07-5.1 303.3-4.38 303.52-3.65 303.97-3.23 304.42-2.8 305.15-2.6 305.87-2.4 306.87-2.25L306.87-2.25ZM319.62-2.25L319.17 0.45Q317.52 0.4 316.29 0.03 315.07-0.35 314.24-1.13 313.42-1.9 312.99-3.13 312.57-4.35 312.57-6.2L312.57-6.2 312.57-38.2 315.82-38.8 315.82-6.3Q315.82-5.1 316.04-4.38 316.27-3.65 316.72-3.23 317.17-2.8 317.89-2.6 318.62-2.4 319.62-2.25L319.62-2.25ZM347.42-12.9L347.42-12.9Q347.42-9.85 346.54-7.35 345.67-4.85 344.09-3.1 342.52-1.35 340.37-0.38 338.22 0.6 335.62 0.6L335.62 0.6Q333.02 0.6 330.87-0.38 328.72-1.35 327.14-3.1 325.57-4.85 324.69-7.35 323.82-9.85 323.82-12.9L323.82-12.9Q323.82-15.95 324.69-18.45 325.57-20.95 327.14-22.73 328.72-24.5 330.87-25.48 333.02-26.45 335.62-26.45L335.62-26.45Q338.22-26.45 340.37-25.48 342.52-24.5 344.09-22.73 345.67-20.95 346.54-18.45 347.42-15.95 347.42-12.9ZM343.97-12.9L343.97-12.9Q343.97-17.75 341.72-20.63 339.47-23.5 335.62-23.5L335.62-23.5Q331.77-23.5 329.52-20.63 327.27-17.75 327.27-12.9L327.27-12.9Q327.27-8.05 329.52-5.2 331.77-2.35 335.62-2.35L335.62-2.35Q339.47-2.35 341.72-5.2 343.97-8.05 343.97-12.9ZM368.31-25.85L371.11-25.85Q371.56-23.35 372.29-20.53 373.01-17.7 373.89-14.78 374.76-11.85 375.74-9 376.71-6.15 377.71-3.65L377.71-3.65Q378.56-5.55 379.51-8.28 380.46-11 381.41-14.03 382.36-17.05 383.19-20.13 384.01-23.2 384.56-25.85L384.56-25.85 387.76-25.85Q385.96-18.25 383.84-11.95 381.71-5.65 379.16 0L379.16 0 376.11 0Q375.36-1.75 374.54-3.93 373.71-6.1 372.84-8.58 371.96-11.05 371.14-13.78 370.31-16.5 369.56-19.35L369.56-19.35Q368.81-16.5 367.99-13.78 367.16-11.05 366.29-8.58 365.41-6.1 364.59-3.93 363.76-1.75 363.01 0L363.01 0 359.91 0Q357.36-5.65 355.24-11.95 353.11-18.25 351.31-25.85L351.31-25.85 354.76-25.85Q355.31-23.2 356.14-20.13 356.96-17.05 357.91-14.03 358.86-11 359.84-8.3 360.81-5.6 361.66-3.7L361.66-3.7Q362.61-6.2 363.59-9.05 364.56-11.9 365.41-14.8 366.26-17.7 367.01-20.53 367.76-23.35 368.31-25.85L368.31-25.85ZM392.31-4.75L395.96-4.75Q396.01-4.3 396.01-3.95 396.01-3.6 396.01-3.35L396.01-3.35Q396.01-0.25 395.14 2.6 394.26 5.45 392.71 7.95L392.71 7.95 390.31 6.85Q391.46 4.65 391.94 2.23 392.41-0.2 392.41-2.8L392.41-2.8Q392.41-3.4 392.39-3.8 392.36-4.2 392.31-4.75L392.31-4.75ZM415.86 0L415.86-24.95Q417.31-25.35 419.63-25.85 421.96-26.35 425.66-26.35L425.66-26.35Q430.56-26.35 432.76-23.5L432.76-23.5Q433.01-23.7 433.73-24.18 434.46-24.65 435.56-25.15 436.66-25.65 438.13-26 439.61-26.35 441.41-26.35L441.41-26.35Q444.36-26.35 446.18-25.48 448.01-24.6 449.01-23.03 450.01-21.45 450.36-19.25 450.71-17.05 450.71-14.45L450.71-14.45 450.71 0 447.46 0 447.46-13.4Q447.46-15.95 447.23-17.82 447.01-19.7 446.33-20.93 445.66-22.15 444.41-22.78 443.16-23.4 441.16-23.4L441.16-23.4Q439.66-23.4 438.43-23.13 437.21-22.85 436.31-22.45 435.41-22.05 434.83-21.65 434.26-21.25 434.01-21.05L434.01-21.05Q434.46-19.75 434.68-18.13 434.91-16.5 434.91-14.7L434.91-14.7 434.91 0 431.66 0 431.66-13.4Q431.66-15.95 431.43-17.82 431.21-19.7 430.51-20.93 429.81-22.15 428.53-22.78 427.26-23.4 425.16-23.4L425.16-23.4Q422.81-23.4 421.18-23.15 419.56-22.9 419.11-22.7L419.11-22.7 419.11 0 415.86 0ZM481.05-12.9L481.05-12.9Q481.05-9.85 480.18-7.35 479.3-4.85 477.73-3.1 476.15-1.35 474-0.38 471.85 0.6 469.25 0.6L469.25 0.6Q466.65 0.6 464.5-0.38 462.35-1.35 460.78-3.1 459.2-4.85 458.33-7.35 457.45-9.85 457.45-12.9L457.45-12.9Q457.45-15.95 458.33-18.45 459.2-20.95 460.78-22.73 462.35-24.5 464.5-25.48 466.65-26.45 469.25-26.45L469.25-26.45Q471.85-26.45 474-25.48 476.15-24.5 477.73-22.73 479.3-20.95 480.18-18.45 481.05-15.95 481.05-12.9ZM477.6-12.9L477.6-12.9Q477.6-17.75 475.35-20.63 473.1-23.5 469.25-23.5L469.25-23.5Q465.4-23.5 463.15-20.63 460.9-17.75 460.9-12.9L460.9-12.9Q460.9-8.05 463.15-5.2 465.4-2.35 469.25-2.35L469.25-2.35Q473.1-2.35 475.35-5.2 477.6-8.05 477.6-12.9ZM508.65-38.8L508.65-0.8Q507.2-0.3 504.95 0.15 502.7 0.6 499.25 0.6L499.25 0.6Q496.4 0.6 494.08-0.33 491.75-1.25 490.08-3 488.4-4.75 487.48-7.25 486.55-9.75 486.55-12.9L486.55-12.9Q486.55-15.85 487.33-18.32 488.1-20.8 489.6-22.6 491.1-24.4 493.28-25.4 495.45-26.4 498.25-26.4L498.25-26.4Q500.8-26.4 502.68-25.68 504.55-24.95 505.4-24.3L505.4-24.3 505.4-38.2 508.65-38.8ZM505.4-3.05L505.4-21.15Q504.95-21.5 504.28-21.9 503.6-22.3 502.7-22.65 501.8-23 500.75-23.23 499.7-23.45 498.55-23.45L498.55-23.45Q496.15-23.45 494.53-22.6 492.9-21.75 491.9-20.33 490.9-18.9 490.45-16.98 490-15.05 490-12.9L490-12.9Q490-7.8 492.55-5.08 495.1-2.35 499.3-2.35L499.3-2.35Q501.7-2.35 503.18-2.58 504.65-2.8 505.4-3.05L505.4-3.05ZM515.7-12.95L515.7-12.95Q515.7-16.35 516.67-18.88 517.65-21.4 519.22-23.1 520.8-24.8 522.82-25.63 524.85-26.45 527-26.45L527-26.45Q531.75-26.45 534.57-23.35 537.4-20.25 537.4-13.8L537.4-13.8Q537.4-13.4 537.37-13 537.35-12.6 537.3-12.25L537.3-12.25 519.15-12.25Q519.3-7.5 521.5-4.95 523.7-2.4 528.5-2.4L528.5-2.4Q531.15-2.4 532.7-2.9 534.25-3.4 534.95-3.75L534.95-3.75 535.55-0.95Q534.85-0.55 532.92 0 531 0.55 528.4 0.55L528.4 0.55Q525 0.55 522.6-0.45 520.2-1.45 518.65-3.25 517.1-5.05 516.4-7.53 515.7-10 515.7-12.95ZM519.25-15L534.05-15Q533.95-19.05 532.15-21.3 530.35-23.55 527.05-23.55L527.05-23.55Q525.3-23.55 523.92-22.85 522.55-22.15 521.52-20.98 520.5-19.8 519.92-18.25 519.35-16.7 519.25-15L519.25-15ZM553.44-26.35L553.44-26.35Q555.04-26.35 556.47-26.1 557.89-25.85 558.44-25.6L558.44-25.6 557.79-22.8Q557.39-23 556.17-23.23 554.94-23.45 552.94-23.45L552.94-23.45Q550.84-23.45 549.57-23.15 548.29-22.85 547.89-22.65L547.89-22.65 547.89 0 544.64 0 544.64-24.65Q545.89-25.2 548.09-25.78 550.29-26.35 553.44-26.35ZM571.49-2.35L571.49-2.35Q573.39-2.35 574.82-2.48 576.24-2.6 577.24-2.8L577.24-2.8 577.24-11.9Q576.69-12.15 575.49-12.43 574.29-12.7 572.19-12.7L572.19-12.7Q570.99-12.7 569.69-12.53 568.39-12.35 567.29-11.78 566.19-11.2 565.49-10.2 564.79-9.2 564.79-7.55L564.79-7.55Q564.79-6.1 565.27-5.1 565.74-4.1 566.62-3.5 567.49-2.9 568.72-2.63 569.94-2.35 571.49-2.35ZM571.19-26.45L571.19-26.45Q573.74-26.45 575.52-25.73 577.29-25 578.39-23.73 579.49-22.45 579.99-20.7 580.49-18.95 580.49-16.9L580.49-16.9 580.49-0.6Q579.99-0.45 579.04-0.28 578.09-0.1 576.84 0.1 575.59 0.3 574.07 0.43 572.54 0.55 570.94 0.55L570.94 0.55Q568.89 0.55 567.17 0.1 565.44-0.35 564.17-1.33 562.89-2.3 562.17-3.83 561.44-5.35 561.44-7.55L561.44-7.55Q561.44-9.65 562.24-11.15 563.04-12.65 564.49-13.63 565.94-14.6 567.94-15.05 569.94-15.5 572.29-15.5L572.29-15.5Q572.99-15.5 573.77-15.43 574.54-15.35 575.27-15.23 575.99-15.1 576.52-14.98 577.04-14.85 577.24-14.75L577.24-14.75 577.24-16.35Q577.24-17.7 577.04-18.98 576.84-20.25 576.17-21.28 575.49-22.3 574.27-22.93 573.04-23.55 571.04-23.55L571.04-23.55Q568.19-23.55 566.79-23.15 565.39-22.75 564.74-22.5L564.74-22.5 564.29-25.35Q565.14-25.75 566.92-26.1 568.69-26.45 571.19-26.45ZM591.84-34.05L591.84-25.85 602.14-25.85 602.14-23.1 591.84-23.1 591.84-9.35Q591.84-7.15 592.21-5.78 592.59-4.4 593.29-3.65 593.99-2.9 594.99-2.65 595.99-2.4 597.19-2.4L597.19-2.4Q599.24-2.4 600.49-2.88 601.74-3.35 602.44-3.75L602.44-3.75 603.24-1.05Q602.54-0.6 600.79-0.03 599.04 0.55 596.99 0.55L596.99 0.55Q594.59 0.55 592.96-0.08 591.34-0.7 590.36-1.98 589.39-3.25 588.99-5.15 588.59-7.05 588.59-9.65L588.59-9.65 588.59-33.45 591.84-34.05ZM606.59-12.95L606.59-12.95Q606.59-16.35 607.56-18.88 608.54-21.4 610.11-23.1 611.69-24.8 613.71-25.63 615.74-26.45 617.89-26.45L617.89-26.45Q622.64-26.45 625.46-23.35 628.29-20.25 628.29-13.8L628.29-13.8Q628.29-13.4 628.26-13 628.24-12.6 628.19-12.25L628.19-12.25 610.04-12.25Q610.19-7.5 612.39-4.95 614.59-2.4 619.39-2.4L619.39-2.4Q622.04-2.4 623.59-2.9 625.14-3.4 625.84-3.75L625.84-3.75 626.44-0.95Q625.74-0.55 623.81 0 621.89 0.55 619.29 0.55L619.29 0.55Q615.89 0.55 613.49-0.45 611.09-1.45 609.54-3.25 607.99-5.05 607.29-7.53 606.59-10 606.59-12.95ZM610.14-15L624.94-15Q624.84-19.05 623.04-21.3 621.24-23.55 617.94-23.55L617.94-23.55Q616.19-23.55 614.81-22.85 613.44-22.15 612.41-20.98 611.39-19.8 610.81-18.25 610.24-16.7 610.14-15L610.14-15ZM642.53-2.25L642.08 0.45Q640.43 0.4 639.21 0.03 637.98-0.35 637.16-1.13 636.33-1.9 635.91-3.13 635.48-4.35 635.48-6.2L635.48-6.2 635.48-38.2 638.73-38.8 638.73-6.3Q638.73-5.1 638.96-4.38 639.18-3.65 639.63-3.23 640.08-2.8 640.81-2.6 641.53-2.4 642.53-2.25L642.53-2.25ZM655.33 0.55L655.33 0.55Q653.68-2.5 652.16-5.8 650.63-9.1 649.31-12.48 647.98-15.85 646.88-19.23 645.78-22.6 644.98-25.85L644.98-25.85 648.43-25.85Q648.98-23.45 649.83-20.68 650.68-17.9 651.76-14.95 652.83-12 654.13-8.9 655.43-5.8 656.93-2.8L656.93-2.8Q658.03-5.9 658.88-8.65 659.73-11.4 660.46-14.13 661.18-16.85 661.86-19.7 662.53-22.55 663.28-25.85L663.28-25.85 666.53-25.85Q664.93-18.6 662.88-11.75 660.83-4.9 658.43 0.8L658.43 0.8Q657.48 3.05 656.48 4.67 655.48 6.3 654.26 7.35 653.03 8.4 651.41 8.9 649.78 9.4 647.58 9.4L647.58 9.4Q646.33 9.4 645.31 9.1 644.28 8.8 644.03 8.65L644.03 8.65 644.68 5.95Q644.88 6.1 645.81 6.38 646.73 6.65 647.73 6.65L647.73 6.65Q649.13 6.65 650.26 6.35 651.38 6.05 652.28 5.33 653.18 4.6 653.91 3.45 654.63 2.3 655.33 0.55ZM703.93-38.8L703.93-0.8Q702.48-0.3 700.23 0.15 697.98 0.6 694.53 0.6L694.53 0.6Q691.68 0.6 689.35-0.33 687.03-1.25 685.35-3 683.68-4.75 682.75-7.25 681.83-9.75 681.83-12.9L681.83-12.9Q681.83-15.85 682.6-18.32 683.38-20.8 684.88-22.6 686.38-24.4 688.55-25.4 690.73-26.4 693.53-26.4L693.53-26.4Q696.08-26.4 697.95-25.68 699.83-24.95 700.68-24.3L700.68-24.3 700.68-38.2 703.93-38.8ZM700.68-3.05L700.68-21.15Q700.23-21.5 699.55-21.9 698.88-22.3 697.98-22.65 697.08-23 696.03-23.23 694.98-23.45 693.83-23.45L693.83-23.45Q691.43-23.45 689.8-22.6 688.18-21.75 687.18-20.33 686.18-18.9 685.73-16.98 685.28-15.05 685.28-12.9L685.28-12.9Q685.28-7.8 687.83-5.08 690.38-2.35 694.58-2.35L694.58-2.35Q696.98-2.35 698.45-2.58 699.93-2.8 700.68-3.05L700.68-3.05ZM710.97-12.95L710.97-12.95Q710.97-16.35 711.95-18.88 712.92-21.4 714.5-23.1 716.07-24.8 718.1-25.63 720.12-26.45 722.27-26.45L722.27-26.45Q727.02-26.45 729.85-23.35 732.67-20.25 732.67-13.8L732.67-13.8Q732.67-13.4 732.65-13 732.62-12.6 732.57-12.25L732.57-12.25 714.42-12.25Q714.57-7.5 716.77-4.95 718.97-2.4 723.77-2.4L723.77-2.4Q726.42-2.4 727.97-2.9 729.52-3.4 730.22-3.75L730.22-3.75 730.82-0.95Q730.12-0.55 728.2 0 726.27 0.55 723.67 0.55L723.67 0.55Q720.27 0.55 717.87-0.45 715.47-1.45 713.92-3.25 712.37-5.05 711.67-7.53 710.97-10 710.97-12.95ZM714.52-15L729.32-15Q729.22-19.05 727.42-21.3 725.62-23.55 722.32-23.55L722.32-23.55Q720.57-23.55 719.2-22.85 717.82-22.15 716.8-20.98 715.77-19.8 715.2-18.25 714.62-16.7 714.52-15L714.52-15ZM738.37-12.95L738.37-12.95Q738.37-16.35 739.35-18.88 740.32-21.4 741.9-23.1 743.47-24.8 745.5-25.63 747.52-26.45 749.67-26.45L749.67-26.45Q754.42-26.45 757.25-23.35 760.07-20.25 760.07-13.8L760.07-13.8Q760.07-13.4 760.05-13 760.02-12.6 759.97-12.25L759.97-12.25 741.82-12.25Q741.97-7.5 744.17-4.95 746.37-2.4 751.17-2.4L751.17-2.4Q753.82-2.4 755.37-2.9 756.92-3.4 757.62-3.75L757.62-3.75 758.22-0.95Q757.52-0.55 755.6 0 753.67 0.55 751.07 0.55L751.07 0.55Q747.67 0.55 745.27-0.45 742.87-1.45 741.32-3.25 739.77-5.05 739.07-7.53 738.37-10 738.37-12.95ZM741.92-15L756.72-15Q756.62-19.05 754.82-21.3 753.02-23.55 749.72-23.55L749.72-23.55Q747.97-23.55 746.6-22.85 745.22-22.15 744.2-20.98 743.17-19.8 742.6-18.25 742.02-16.7 741.92-15L741.92-15ZM770.57-22.7L770.57-4.65Q771.02-4.3 771.69-3.9 772.37-3.5 773.27-3.15 774.17-2.8 775.22-2.58 776.27-2.35 777.42-2.35L777.42-2.35Q779.82-2.35 781.44-3.18 783.07-4 784.07-5.43 785.07-6.85 785.52-8.78 785.97-10.7 785.97-12.85L785.97-12.85Q785.97-17.95 783.42-20.68 780.87-23.4 776.67-23.4L776.67-23.4Q774.27-23.4 772.79-23.18 771.32-22.95 770.57-22.7L770.57-22.7ZM770.57-1.5L770.57 9.25 767.32 9.25 767.32-24.95Q768.77-25.45 771.02-25.9 773.27-26.35 776.72-26.35L776.72-26.35Q779.57-26.35 781.89-25.43 784.22-24.5 785.89-22.75 787.57-21 788.49-18.5 789.42-16 789.42-12.85L789.42-12.85Q789.42-9.9 788.64-7.43 787.87-4.95 786.37-3.18 784.87-1.4 782.69-0.4 780.52 0.6 777.72 0.6L777.72 0.6Q775.17 0.6 773.29-0.13 771.42-0.85 770.57-1.5L770.57-1.5ZM801.07-2.15L801.07-2.15Q801.07-1 800.34-0.2 799.62 0.6 798.32 0.6L798.32 0.6Q797.02 0.6 796.29-0.2 795.57-1 795.57-2.15L795.57-2.15Q795.57-3.3 796.29-4.1 797.02-4.9 798.32-4.9L798.32-4.9Q799.62-4.9 800.34-4.1 801.07-3.3 801.07-2.15ZM818.66-7.8L818.66-10.6 841.26-10.6 841.26-7.8 818.66-7.8ZM818.66-18.3L818.66-21.1 841.26-21.1 841.26-18.3 818.66-18.3ZM855.41-14.95L855.41-14.95Q855.41-7.7 853.03-1.6 850.66 4.5 846.86 9.25L846.86 9.25 844.51 7.65Q848.46 2.75 850.28-2.73 852.11-8.2 852.11-14.95L852.11-14.95Q852.11-21.7 850.28-27.18 848.46-32.65 844.51-37.55L844.51-37.55 846.86-39.15Q850.66-34.4 853.03-28.3 855.41-22.2 855.41-14.95Z" opacity="1" transform="matrix(1,0,0,1,0,0)" fill="#ffffff" class="undefined-text-1" data-fill-palette-color="secondary" id="text-1"></path></svg></g></svg></g></svg></g></svg></g><g transform="matrix(1,0,0,1,0,6.409637253604487)"><svg viewBox="0 0 244.43135999999998 115.02652235294117" height="115.02652235294117" width="244.43135999999998"><g><svg xmlns="http://www.w3.org/2000/svg" xmlns:xlink="http://www.w3.org/1999/xlink" version="1.1" x="0" y="0" viewBox="7 26 68 32" enable-background="new 0 0 80 80" xml:space="preserve" height="115.02652235294117" width="244.43135999999998" class="icon-icon-0" data-fill-palette-color="accent" id="icon-0"><g fill="#1c4b82" data-fill-palette-color="accent"><path fill="#ffffff" d="M41 58c-8.8 0-16-7.2-16-16s7.2-16 16-16 16 7.2 16 16S49.8 58 41 58zM41 28c-7.7 0-14 6.3-14 14s6.3 14 14 14 14-6.3 14-14S48.7 28 41 28z" data-fill-palette-color="accent"></path></g><g fill="#1c4b82" data-fill-palette-color="accent"><path fill="#ffffff" d="M23 58c-8.8 0-16-7.2-16-16s7.2-16 16-16 16 7.2 16 16S31.8 58 23 58zM23 28c-7.7 0-14 6.3-14 14s6.3 14 14 14 14-6.3 14-14S30.7 28 23 28z" data-fill-palette-color="accent"></path></g><g fill="#1c4b82" data-fill-palette-color="accent"><path fill="#ffffff" d="M59 58c-8.8 0-16-7.2-16-16s7.2-16 16-16 16 7.2 16 16S67.8 58 59 58zM59 28c-7.7 0-14 6.3-14 14s6.3 14 14 14 14-6.3 14-14S66.7 28 59 28z" data-fill-palette-color="accent"></path></g><g fill="#1c4b82" data-fill-palette-color="accent"><rect x="25.9" y="38" transform="matrix(0.7071 0.7071 -0.7071 0.7071 37.2426 -11.9117)" fill="#ffffff" width="14.1" height="2" data-fill-palette-color="accent"></rect></g><g fill="#1c4b82" data-fill-palette-color="accent"><rect x="23.9" y="45" transform="matrix(0.7071 0.7071 -0.7071 0.7071 41.6066 -8.4472)" fill="#ffffff" width="14.1" height="2" data-fill-palette-color="accent"></rect></g><g fill="#1c4b82" data-fill-palette-color="accent"><rect x="43.9" y="38" transform="matrix(0.7071 0.7071 -0.7071 0.7071 42.5147 -24.6396)" fill="#ffffff" width="14.1" height="2" data-fill-palette-color="accent"></rect></g><g fill="#1c4b82" data-fill-palette-color="accent"><rect x="41.9" y="45" transform="matrix(0.7071 0.7071 -0.7071 0.7071 46.8787 -21.1751)" fill="#ffffff" width="14.1" height="2" data-fill-palette-color="accent"></rect></g></svg></g></svg></g></svg></g><defs></defs></svg><rect width="395.52" height="76.40077923352739" fill="none" stroke="none" visibility="hidden"></rect></g></svg></g></svg>
